<svg width="505" height="104" viewBox="0 0 505 104" fill="none" xmlns="http://www.w3.org/2000/svg">
<path d="M163.7 93.6557C163.7 106.646 184.9 106.373 184.9 93.6557V19.6214H211.7C226.1 19.6214 226.1 0.817559 211.7 0.817559H135.4C121.4 0.817559 121.4 19.6214 135.4 19.6214H163.7V93.6557ZM295.6 102.74C311.4 102.74 310.3 83.4817 295.6 83.4817H246.4V61.4985H287.1C301.5 61.4985 301.5 42.2405 287.1 42.2405H246.4V20.3481H292.9C307.4 20.3481 307.7 1.3626 292.9 1.3626H234.9C229.3 1.3626 224.9 5.17786 224.9 10.4466V93.6557C224.9 98.7427 229.3 102.74 234.9 102.74H295.6ZM333.1 66.6763H358.4L382.7 98.2885C392.4 109.462 409.2 98.6519 400.8 87.2969L379.3 63.5878C413.5 51.1427 405.1 1.3626 364.2 1.3626H321.3C316 1.3626 311.6 5.17786 311.6 10.3557V93.5649C311.6 106.464 333.1 106.01 333.1 93.2015V66.6763V66.6763ZM333.1 19.0763H364.3C386.5 19.0763 385.2 49.871 364.3 49.871H333.1V19.0763ZM408.1 92.6565C408.1 99.1061 413.2 102.831 419 102.831C424.8 102.831 429.2 99.1969 429.2 92.6565V36.0634L482.6 97.5618C487.3 101.559 490 102.74 495.6 102.74C499.8 101.559 504.2 99.1061 504.2 92.5656V10.0832C504.2 5.2687 498.6 0 492.8 0C487.3 0 482.6 5.2687 482.6 10.0832V66.9489L429.2 6.26794C424.9 2.45267 423.6 1.18092 417.8 1.18092C409.4 1.18092 408.2 6.26794 408.2 11.5366V92.6565H408.1Z" fill="#FFFDFD"/>
<path fill-rule="evenodd" clip-rule="evenodd" d="M60.5 49.2351L118.4 103.83L60.1 87.3878L37.5 66.0405L60.5 49.2351ZM70.1 1.09009H118.4L33.7 63.0428L9.5 91.7481L13 42.8764L70.1 1.09009Z" fill="#FFFDFD"/>
<path fill-rule="evenodd" clip-rule="evenodd" d="M9.5 1.09009V39.697L32.5 22.8008L9.5 1.09009Z" fill="#FFFDFD"/>
<path fill-rule="evenodd" clip-rule="evenodd" d="M7.9 15.1702V1.09009L0 8.17558L7.9 15.1702Z" fill="#FFFDFD"/>
</svg>
